<?xml version="1.0" encoding="UTF-8"?>
<svg width="249px" height="449px" viewBox="0 0 249 449" version="1.1" xmlns="http://www.w3.org/2000/svg" xmlns:xlink="http://www.w3.org/1999/xlink">
    <!-- Generator: Sketch 54.1 (76490) - https://sketchapp.com -->
    <title>Group</title>
    <desc>Created with Sketch.</desc>
    <defs>
        <path d="M51.2211029,276.605615 C19.2777413,248.159251 0,211.286409 0,171 C0,80.9775858 96.2587788,8 215,8 C333.741221,8 430,80.9775858 430,171 C430,184.858596 427.718726,198.31324 423.425345,211.159866 C462.099098,248.679203 486,300.395791 486,357.5 C486,472.099086 389.741221,565 271,565 C152.258779,565 56,472.099086 56,357.5 C56,346.083933 56.9552369,334.88319 58.7927778,323.968161 C60.4415943,304.179215 57.9177027,288.3917 51.2211029,276.605615 Z" id="path-1"></path>
        <mask id="mask-2" maskContentUnits="userSpaceOnUse" maskUnits="objectBoundingBox" x="-7" y="-7" width="500" height="571">
            <rect x="-7" y="1" width="500" height="571" fill="white"></rect>
            <use xlink:href="#path-1" fill="black"></use>
        </mask>
    </defs>
    <g id="Page-1" stroke="none" stroke-width="1" fill="none" fill-rule="evenodd">
        <g id="Revised" transform="translate(-1010.000000, 0.000000)">
            <g id="Group" transform="translate(1017.000000, -122.000000)">
                <path d="M63.3918453,263.184196 C34.9473323,235.545029 18,200.772972 18,163 C18,72.9775858 114.258779,0 233,0 C351.741221,0 448,72.9775858 448,163 C448,176.858596 445.718726,190.31324 441.425345,203.159866 C480.099098,240.679203 504,292.395791 504,349.5 C504,464.099086 407.741221,557 289,557 C170.258779,557 74,464.099086 74,349.5 C74,338.347454 74.9116457,327.400406 76.6669393,316.724483 C78.3232595,294.480043 73.7055422,276.54615 62.8137875,262.922804 L63.3918453,263.184196 Z" id="Combined-Shape" fill="#35298F"></path>
                <use id="Combined-Shape" stroke="#35298F" mask="url(#mask-2)" stroke-width="14" stroke-dasharray="11,11" xlink:href="#path-1"></use>
            </g>
        </g>
    </g>
</svg>