<?xml version="1.0" encoding="UTF-8"?>
<svg width="247px" height="588px" viewBox="0 0 247 588" version="1.1" xmlns="http://www.w3.org/2000/svg" xmlns:xlink="http://www.w3.org/1999/xlink">
    <!-- Generator: Sketch 54.1 (76490) - https://sketchapp.com -->
    <title>Group 5</title>
    <desc>Created with Sketch.</desc>
    <defs>
        <path d="M66.2725484,277.815463 C34.2984406,248.392328 15,210.243135 15,168.560144 C15,75.4669469 111.258779,0 230,0 C348.741221,0 445,75.4669469 445,168.560144 C445,182.891475 442.718726,196.805075 438.425345,210.089915 C477.099098,248.889086 501,302.369794 501,361.421903 C501,479.930114 404.741221,576 286,576 C167.258779,576 71,479.930114 71,361.421903 C71,350.751585 71.7803657,340.263174 73.2872448,330.010416 C75.522448,308.072021 73.1842158,290.673704 66.2725484,277.815463 Z" id="path-1"></path>
        <mask id="mask-2" maskContentUnits="userSpaceOnUse" maskUnits="objectBoundingBox" x="-7" y="-7" width="500" height="590">
            <rect x="8" y="-7" width="500" height="590" fill="white"></rect>
            <use xlink:href="#path-1" fill="black"></use>
        </mask>
    </defs>
    <g id="Page-1" stroke="none" stroke-width="1" fill="none" fill-rule="evenodd">
        <g id="Revised" transform="translate(0.000000, -223.000000)">
            <g id="Group-5" transform="translate(-261.000000, 228.000000)">
                <path d="M45.3918453,272.184196 C16.9473323,244.545029 0,209.772972 0,172 C0,81.9775858 96.2587788,9 215,9 C333.741221,9 430,81.9775858 430,172 C430,185.858596 427.718726,199.31324 423.425345,212.159866 C462.099098,249.679203 486,301.395791 486,358.5 C486,473.099086 389.741221,566 271,566 C152.258779,566 56,473.099086 56,358.5 C56,347.347454 56.9116457,336.400406 58.6669393,325.724483 C60.3232595,303.480043 55.7055422,285.54615 44.8137875,271.922804 L45.3918453,272.184196 Z" id="Combined-Shape" fill="#8a100b" transform="translate(243.000000, 287.500000) scale(-1, -1) translate(-243.000000, -287.500000) "></path>
                <use id="Combined-Shape" stroke="#dccaa0" mask="url(#mask-2)" stroke-width="14" stroke-dasharray="11,11" transform="translate(258.000000, 288.000000) scale(-1, -1) translate(-258.000000, -288.000000) " xlink:href="#path-1"></use>
            </g>
        </g>
    </g>
</svg>