<svg xmlns="http://www.w3.org/2000/svg" width="1344" height="1344" preserveAspectRatio="xMidYMid meet" version="1.0" viewBox="0 0 1008 1008"><metadata>Created by potrace 1.11, written by Peter Selinger 2001-2013</metadata><g fill="#000" stroke="none"><path d="M2999 9596 c-2 -2 -47 -6 -99 -10 -93 -5 -134 -9 -235 -21 -94 -11 -110 -14 -145 -20 -19 -4 -46 -8 -60 -10 -20 -2 -155 -31 -239 -50 -105 -25 -372 -112 -446 -145 -23 -10 -47 -20 -55 -22 -8 -2 -17 -5 -20 -8 -3 -3 -39 -21 -80 -40 -41 -18 -101 -49 -133 -67 -33 -18 -63 -33 -68 -33 -5 0 -9 -4 -9 -10 0 -5 -5 -10 -11 -10 -26 0 -268 -174 -387 -279 -67 -58 -115 -106 -207 -205 -11 -11 -115 -136 -141 -169 -16 -20 -161 -240 -182 -275 -82 -142 -187 -376 -242 -542 -18 -52 -35 -102 -38 -110 -3 -8 -6 -19 -7 -25 -2 -5 -15 -51 -29 -102 -15 -51 -29 -105 -32 -120 -3 -15 -7 -36 -10 -45 -3 -9 -7 -27 -9 -40 -3 -13 -10 -48 -17 -78 -6 -30 -12 -64 -13 -75 -2 -11 -7 -47 -14 -80 -6 -33 -13 -82 -16 -110 -4 -27 -8 -61 -10 -75 -3 -14 -7 -52 -10 -85 -4 -33 -8 -79 -10 -103 -27 -269 -27 -824 0 -1032 5 -45 16 -117 21 -152 2 -16 6 -40 8 -55 3 -23 31 -162 40 -198 2 -5 6 -28 11 -50 4 -22 10 -44 14 -50 3 -5 7 -19 9 -30 4 -25 7 -36 15 -55 3 -8 11 -33 17 -55 6 -22 15 -49 20 -60 4 -11 23 -58 41 -105 17 -47 36 -89 41 -95 4 -5 8 -17 8 -26 0 -9 7 -22 15 -29 9 -7 13 -15 11 -18 -3 -2 14 -39 36 -81 23 -42 46 -86 52 -98 6 -13 14 -23 19 -23 4 0 7 -5 7 -10 0 -19 136 -212 216 -309 74 -89 272 -280 353 -341 19 -14 43 -33 54 -43 12 -10 37 -28 57 -40 19 -12 44 -29 54 -39 11 -10 23 -18 27 -18 4 0 14 -6 21 -12 7 -7 31 -22 52 -33 22 -11 44 -24 50 -30 17 -15 307 -165 321 -165 5 0 110 -47 137 -61 10 -5 24 -9 33 -9 8 0 30 -9 50 -20 19 -11 35 -18 35 -15 0 4 14 0 95 -31 25 -9 34 -11 63 -18 12 -3 28 -8 34 -12 7 -5 19 -9 28 -10 8 -1 56 -14 105 -28 102 -30 103 -31 165 -42 50 -9 58 -10 65 -14 3 -1 8 -3 13 -4 10 -3 73 -15 102 -21 14 -3 49 -10 79 -16 30 -6 64 -12 75 -14 114 -15 153 -21 191 -29 12 -2 51 -7 87 -10 37 -4 77 -9 89 -11 77 -15 371 -18 1914 -18 1606 0 1726 2 1815 18 91 17 230 66 288 101 69 43 108 70 123 86 9 10 20 18 24 18 20 0 175 177 175 199 0 6 4 11 9 11 5 0 29 42 54 93 98 199 123 390 82 622 -3 17 -9 39 -12 50 -4 11 -7 22 -8 25 -1 20 -61 160 -67 160 -4 0 -8 9 -8 20 0 11 -4 20 -10 20 -5 0 -10 5 -10 11 0 21 -97 143 -162 204 -107 101 -264 194 -374 220 -11 3 -46 12 -79 21 -55 16 -212 17 -1845 19 -1608 3 -1926 6 -2025 20 -16 2 -52 7 -79 10 -48 7 -243 57 -281 74 -224 96 -392 221 -488 361 -17 25 -33 47 -36 50 -11 9 -84 151 -101 195 -23 58 -35 91 -37 100 -1 6 -11 44 -22 85 -11 41 -22 93 -26 115 -3 23 -8 52 -10 65 -26 129 -25 503 0 665 15 96 39 197 67 284 32 99 116 274 149 310 11 12 16 21 12 21 -4 0 -1 6 7 13 8 7 27 28 41 47 70 92 174 181 314 267 18 11 82 43 95 48 3 1 25 11 50 22 38 17 79 33 100 38 3 1 12 4 20 8 24 10 162 45 200 51 19 3 46 8 59 10 21 5 84 13 171 23 19 2 1138 5 2485 7 1348 2 2464 6 2480 10 78 16 195 51 195 58 0 5 7 8 15 8 21 0 122 56 183 102 64 48 123 105 179 173 45 55 130 209 137 248 2 14 9 35 16 46 6 12 8 21 4 21 -3 0 -1 7 6 15 7 8 10 15 8 15 -3 0 0 24 7 53 15 65 12 273 -5 342 -44 181 -113 313 -225 433 -58 63 -155 141 -205 167 -108 55 -153 76 -173 79 -12 3 -23 5 -24 7 -2 1 -6 2 -10 3 -5 1 -21 5 -38 9 -16 4 -41 11 -55 15 -25 7 -5123 15 -5131 8z" transform="translate(0.000000,1008.000000) scale(0.100000,-0.100000)"/><path d="M3327 7204 c-3 -3 -25 -8 -49 -10 -99 -11 -241 -50 -275 -77 -7 -5 -13 -7 -13 -3 0 3 -23 -8 -50 -24 -28 -17 -55 -30 -60 -30 -4 0 -10 -3 -12 -7 -1 -5 -22 -21 -46 -37 -54 -37 -154 -137 -202 -201 -80 -109 -140 -247 -170 -390 -17 -77 -17 -273 -1 -347 7 -32 13 -61 13 -65 5 -51 77 -206 139 -298 118 -176 325 -327 514 -374 28 -7 57 -15 65 -18 8 -4 22 -7 30 -9 15 -3 163 -15 188 -15 6 0 118 0 248 1 130 0 239 -2 242 -5 3 -2 11 0 18 6 9 7 19 7 32 0 11 -6 22 -8 25 -4 7 7 167 6 174 -1 3 -2 15 -1 27 4 13 4 29 4 36 0 9 -5 19 -5 27 1 8 7 18 7 31 0 11 -6 22 -8 25 -5 6 7 538 6 545 0 2 -3 12 -1 21 4 10 5 23 5 31 0 9 -5 19 -5 27 1 8 7 18 7 30 0 11 -5 25 -6 33 -1 8 5 21 5 30 0 11 -6 21 -5 27 1 8 8 17 8 30 1 11 -6 25 -7 33 -2 8 5 21 5 30 0 11 -6 21 -5 27 1 8 8 17 8 30 1 11 -6 25 -7 33 -2 8 5 21 5 30 0 11 -6 21 -5 27 1 8 8 17 8 31 0 10 -6 22 -8 24 -5 7 6 479 6 486 -1 3 -2 11 0 18 6 9 7 19 7 32 0 11 -6 22 -8 25 -4 7 7 167 6 174 -1 3 -2 15 -1 27 4 13 4 29 4 36 0 9 -5 19 -5 27 1 8 7 18 7 31 0 11 -6 22 -8 25 -5 12 13 762 2 837 -11 19 -4 46 -8 60 -10 58 -7 175 -31 175 -35 0 -1 11 -3 25 -6 30 -5 61 -16 160 -57 197 -81 360 -214 474 -385 49 -75 116 -210 116 -236 0 -9 4 -16 10 -16 5 0 9 -3 8 -7 -2 -5 5 -35 14 -68 25 -87 46 -183 52 -235 3 -25 8 -65 12 -90 17 -128 9 -456 -16 -595 -10 -56 -18 -98 -24 -135 -1 -8 -5 -22 -9 -30 -4 -8 -9 -26 -11 -40 -3 -14 -5 -25 -6 -25 -1 0 -3 -7 -5 -15 -5 -21 -30 -87 -51 -135 -10 -22 -18 -43 -18 -46 -2 -17 -112 -191 -149 -234 -136 -160 -307 -279 -517 -358 -71 -26 -215 -67 -260 -73 -19 -2 -57 -9 -85 -14 -27 -5 -72 -12 -100 -16 -27 -4 -1155 -9 -2505 -11 -1350 -2 -2470 -4 -2487 -6 -18 -1 -33 -4 -33 -7 0 -3 -8 -6 -17 -6 -56 -3 -256 -76 -283 -104 -3 -3 -32 -23 -64 -45 -33 -22 -85 -65 -115 -95 -65 -64 -143 -165 -134 -174 4 -3 2 -6 -4 -6 -6 0 -13 -8 -17 -17 -3 -10 -10 -25 -15 -33 -28 -43 -77 -187 -89 -265 -9 -53 -8 -239 0 -295 14 -88 55 -212 89 -266 11 -19 17 -34 12 -34 -4 0 -3 -4 2 -8 6 -4 27 -32 48 -63 47 -70 136 -162 202 -210 64 -46 172 -109 193 -112 10 -1 22 -5 27 -8 18 -11 110 -38 148 -43 20 -4 54 -9 75 -12 48 -9 4925 -11 4975 -3 20 4 40 2 43 -2 3 -5 11 -6 17 -2 7 4 32 8 57 9 57 1 222 14 246 18 11 2 48 7 84 11 36 4 88 11 115 16 28 5 66 12 85 15 65 10 122 22 195 41 33 8 68 17 79 19 10 2 44 11 75 20 31 10 61 18 66 20 45 11 193 64 252 90 17 8 34 14 37 14 14 0 264 125 314 157 29 18 57 33 62 33 6 0 10 5 10 10 0 6 7 10 15 10 8 0 23 8 33 18 10 9 25 18 33 20 7 2 16 8 19 13 3 5 33 28 67 51 53 38 90 67 177 141 75 64 223 218 281 291 30 38 56 71 74 92 18 22 130 190 161 244 80 134 199 383 192 402 -1 5 2 8 8 8 5 0 10 8 10 18 0 10 4 22 8 27 9 10 90 250 97 287 3 12 11 42 19 67 8 25 20 71 26 101 7 30 15 62 18 70 2 8 6 22 7 30 1 13 12 68 22 110 1 8 5 29 8 45 2 17 7 41 10 55 3 14 7 45 10 70 2 25 5 45 5 45 3 0 9 41 14 85 3 25 7 65 10 90 35 265 41 942 11 1120 -2 14 -7 50 -9 80 -3 30 -8 69 -11 85 -3 17 -8 46 -11 65 -4 19 -8 46 -10 60 -1 14 -7 43 -13 65 -19 77 -25 100 -27 115 -7 38 -11 50 -17 56 -4 4 -7 15 -7 24 0 28 -73 242 -114 335 -8 17 -26 59 -42 95 -15 36 -37 79 -48 95 -12 17 -19 30 -17 30 3 0 -2 11 -11 25 -8 14 -37 61 -63 105 -113 185 -283 386 -470 554 -65 59 -320 243 -365 264 -8 4 -37 20 -65 37 -81 48 -318 162 -415 200 -30 12 -64 26 -75 31 -68 29 -439 142 -462 140 -2 0 -17 5 -35 10 -18 6 -44 12 -58 15 -14 3 -33 7 -42 10 -24 7 -45 11 -228 44 -171 30 -214 37 -290 46 -64 8 -95 12 -95 14 0 0 -27 3 -60 6 -124 9 -161 13 -180 17 -11 2 -28 0 -37 -5 -12 -6 -18 -5 -18 2 0 8 -6 8 -20 0 -14 -8 -20 -8 -20 0 0 8 -6 8 -20 0 -14 -8 -20 -8 -20 0 0 8 -6 8 -20 0 -14 -8 -20 -8 -20 0 0 8 -6 8 -20 0 -14 -8 -20 -8 -20 0 0 8 -6 8 -20 0 -14 -8 -20 -8 -20 0 0 8 -6 8 -20 0 -14 -8 -20 -8 -20 0 0 7 -6 8 -17 2 -20 -9 -54 -8 -71 2 -6 3 -13 2 -17 -3 -4 -7 -15 -7 -30 -1 -15 6 -25 6 -25 0 0 -5 -12 -5 -30 0 -18 5 -32 5 -35 -1 -4 -5 -14 -5 -25 1 -13 7 -21 7 -25 0 -4 -7 -12 -7 -24 0 -10 5 -21 6 -25 3 -8 -9 -66 -10 -66 -1 0 4 -11 3 -25 -2 -15 -6 -26 -6 -30 0 -4 7 -13 6 -25 0 -13 -7 -21 -7 -25 0 -5 7 -11 8 -19 1 -7 -6 -17 -6 -26 -1 -8 5 -18 6 -24 3 -12 -8 -66 -10 -66 -3 0 7 -66 4 -79 -5 -6 -3 -11 -1 -11 5 0 8 -6 8 -20 0 -14 -8 -20 -8 -20 0 0 8 -6 8 -20 0 -14 -8 -20 -8 -20 0 0 8 -6 8 -20 0 -14 -8 -20 -8 -20 0 0 8 -6 8 -20 0 -14 -8 -20 -8 -20 0 0 8 -6 8 -20 0 -14 -8 -20 -8 -20 0 0 8 -6 8 -20 0 -14 -8 -20 -8 -20 0 0 6 -5 8 -11 5 -16 -10 -79 -12 -79 -2 0 4 -8 3 -18 -2 -11 -6 -24 -6 -34 0 -10 6 -19 6 -23 0 -4 -7 -15 -7 -30 -1 -16 6 -25 6 -25 0 0 -6 -9 -6 -25 0 -16 6 -25 6 -25 0 0 -6 -9 -6 -25 0 -14 5 -25 6 -25 2 0 -9 -53 -7 -69 2 -5 4 -12 2 -16 -3 -4 -7 -15 -7 -30 -1 -16 6 -25 6 -25 0 0 -6 -9 -6 -25 0 -16 6 -25 6 -25 0 0 -6 -9 -6 -25 0 -14 5 -25 6 -25 2 0 -4 -16 -7 -35 -7 -19 0 -35 2 -35 5 0 7 -66 4 -79 -5 -6 -3 -11 -1 -11 5 0 8 -6 8 -20 0 -14 -8 -20 -8 -20 0 0 8 -6 8 -20 0 -14 -8 -20 -8 -20 0 0 8 -6 8 -20 0 -14 -8 -20 -8 -20 0 0 8 -6 8 -20 0 -14 -8 -20 -8 -20 0 0 8 -6 8 -20 0 -14 -8 -20 -8 -20 0 0 8 -6 8 -20 0 -14 -8 -20 -8 -20 0 0 7 -6 8 -17 2 -20 -9 -54 -8 -71 2 -6 3 -13 2 -17 -3 -4 -7 -15 -7 -30 -1 -15 6 -25 6 -25 0 0 -5 -12 -5 -30 0 -18 5 -32 5 -35 -1 -4 -5 -14 -5 -25 1 -13 7 -21 7 -25 0 -4 -7 -12 -7 -24 0 -10 5 -21 6 -25 3 -8 -9 -66 -10 -66 -1 0 4 -11 3 -25 -2 -15 -6 -26 -6 -30 0 -4 7 -13 6 -25 0 -13 -7 -21 -7 -25 0 -5 7 -11 8 -19 1 -7 -6 -17 -6 -26 -1 -8 5 -18 6 -24 3 -12 -8 -66 -10 -66 -3 0 7 -66 4 -79 -5 -6 -3 -11 -1 -11 5 0 8 -6 8 -20 0 -14 -8 -20 -8 -20 0 0 8 -6 8 -20 0 -14 -8 -20 -8 -20 0 0 8 -6 8 -20 0 -14 -8 -20 -8 -20 0 0 8 -6 8 -20 0 -14 -8 -20 -8 -20 0 0 8 -6 8 -20 0 -14 -8 -20 -8 -20 0 0 8 -6 8 -20 0 -14 -8 -20 -8 -20 0 0 6 -5 8 -11 5 -15 -10 -79 -12 -79 -3 0 3 -13 3 -30 -2 -19 -5 -30 -5 -30 1 0 6 -6 7 -17 0 -10 -5 -26 -5 -39 -1 -12 5 -24 6 -27 4z" transform="translate(0.000000,1008.000000) scale(0.100000,-0.100000)"/></g></svg>