<?xml version="1.0" encoding="UTF-8"?>
<svg width="242px" height="161px" viewBox="0 0 242 161" version="1.1" xmlns="http://www.w3.org/2000/svg" xmlns:xlink="http://www.w3.org/1999/xlink">
    <!-- Generator: Sketch 54.1 (76490) - https://sketchapp.com -->
    <title>Combined Shape</title>
    <desc>Created with Sketch.</desc>
    <g id="Page-1" stroke="none" stroke-width="1" fill="none" fill-rule="evenodd">
        <g id="Revised" transform="translate(-508.000000, -312.000000)" fill="#8a100b" stroke="#dccaa0" stroke-width= "3px">
            <path d="M629.337491,466.760667 L512.448429,467.832875 C511.239703,468.510781 510.327796,469.026625 509.71271,469.380407 C509.097624,469.734189 508.730653,470.956415 508.611797,473.047085 L508.611797,421.065615 L510.397389,419.386971 L510.397389,416.023687 L513.611797,416.023687 L532.904542,393.932865 L549.301964,415.035152 L552.744516,416.023687 L552.744516,419.386971 L558.593125,424.792604 L563.926151,424.792604 L565.115856,422.917452 L567.928917,424.792604 L574.806695,424.792604 L581.843677,435.70046 L607.151235,435.70046 L607.151235,358.985513 L608.418433,357.484185 L608.418433,345.193855 L608.765007,344.421184 L608.765007,341.641099 L609.37151,340.696133 L609.37151,331.899255 L610.807595,329.742665 L610.807595,323.751459 L614.800161,312 L614.800161,322.112093 L616.743166,322.724556 L617.954892,343.54031 L619.975693,346.405076 L621.411847,343.54031 L621.411847,340.696133 L622.802739,339.603851 L623.790508,340.696133 L623.790508,344.421184 L625.847217,346.405076 L627.73404,344.421184 L627.73404,338.632974 L628.809152,338.632974 L629,338.345103 L629,337.422277 L629.305899,337.88369 L629.611797,337.422277 L629.611001,338.343901 L629.802645,338.632974 L630.877758,338.632974 L630.877758,344.421184 L632.76458,346.405076 L634.82129,344.421184 L634.82129,340.696133 L635.809059,339.603851 L637.19995,340.696133 L637.19995,343.54031 L638.636105,346.405076 L640.656905,343.54031 L641.868631,322.724556 L643.811636,322.112093 L643.811636,312 L647.804202,323.751459 L647.804202,329.742665 L649.240287,331.899255 L649.240287,340.696133 L649.846791,341.641099 L649.846791,344.421184 L650.193365,345.193855 L650.193365,357.484185 L651.460563,358.985513 L651.460563,435.70046 L676.76812,435.70046 L683.805103,424.792604 L690.68288,424.792604 L693.495941,422.917452 L694.685647,424.792604 L700.018672,424.792604 L705.867281,419.386971 L705.867281,416.023687 L709.309834,415.035152 L725.707255,393.932865 L745,416.023687 L748.214408,416.023687 L748.214408,419.386971 L750,421.065615 L749.477549,471.699413 C750.092635,470.089375 750.092635,469.107464 749.477549,468.753683 C748.862463,468.399901 747.981796,467.908557 746.835547,467.27965 L629.337491,466.760667 Z" id="Combined-Shape"></path>
        </g>
    </g>
</svg>