<svg xmlns="http://www.w3.org/2000/svg" id="Layer_1" data-name="Layer 1" viewBox="0 0 461 470"><defs><style>.cls-1,.cls-2{stroke:#dccaa0;stroke-miterlimit:10}.cls-1{fill:#dccaa0;stroke-width:3px}.cls-2{fill:#fff}</style></defs><title>hth5 design</title><polygon points="81.12 177.97 226.43 93.78 226.69 261.71 81.12 177.97" class="cls-1"/><polygon points="371.99 177.52 226.43 93.78 226.69 261.71 371.99 177.52" class="cls-1"/><path d="M298.32,379.68q-.18-40.9-.37-81.81c-.07-13.69-.18-27.38-.26-41.06q-.12-20.85-.21-41.68-.11-40.06-.17-80.12v-1.79c-2.52-.61-2.6-.81-2.37-3.35a38.49,38.49,0,0,0-.06-3.87c0-5.76,0-11.51-.06-17.27a4.37,4.37,0,0,0-.72-1.86c-.32-.6-1-1.08-1.13-1.7-.89-3.23-1.66-6.5-2.49-9.75-1.62-6.36-3.31-12.71-4.87-19.08-.72-3-1.23-6-1.79-8.94-.16-.86.05-1.49,1.21-1.5.33,0,.91-.77.92-1.2s-.53-1.24-.85-1.25c-1.19-.05-1.32-.67-1.31-1.62,0-2.75,0-5.5,0-8.25,0-1.1-.16-2-1.54-2s-1.73.84-1.72,2c0,2.69,0,5.39,0,8.08,0,1-.08,1.73-1.37,1.76-.28,0-.73.86-.74,1.33s.5,1.07.81,1.09c1.27.06,1.45.81,1.39,1.79a11,11,0,0,1-.27,2c-1.55,6-3.16,11.89-4.68,17.84s-2.9,11.86-4.42,17.77c-.15.58-.77,1.43-1.22,1.46-1.49.1-1.58.92-1.58,2.09,0,7,0,13.9,0,20.85,0,3.13,0,3.13-3.09,3.14-2.44,0-2.51.08-2.51,2.57l0,16.8c0,.71.14,1.71-.92,1.62-2.2-.19-2.14,1.2-2.14,2.68q0,9.72,0,19.44c0,.77.16,1.78-1,1.67-.35,0-.85-1-.86-1.61-.06-4.56,0-9.12-.06-13.69,0-.74-.33-1.9-.84-2.13a34.36,34.36,0,0,0-6.81-2.43c-3.5-.72-6.72.59-9.85,2.06a2.77,2.77,0,0,0-1.8,2.91c.06,4.45,0,8.91,0,13.37,0,.58.4,1.56-.73,1.46-.28,0-.66-.92-.67-1.41q-.08-9.27-.05-18.52c0-4,.22-3.71-3.69-3.69-4.29,0-4.3,0-4.35-4.29,0-.93,0-1.74-1.24-2-.29-.06-.62-.77-.63-1.18-.06-2.44,0-4.87-.05-7.31,0-.89.25-1.41,1.24-1.31s1.57-.39,1.63-1.53a1.58,1.58,0,0,1,1.09-1.05c1-.11,1.54-.63,1.35-1.48a2.26,2.26,0,0,0-1.27-1.54c-1-.21-1.32-.57-1.23-1.54s-.42-1.68-1.47-1.5c-1.39.25-1.71-.3-1.71-1.58,0-.43-.85-1.27-1.13-1.2-.55.13-1.42.83-1.38,1.2.2,1.63-.6,1.73-1.84,1.58-1-.13-1.68.49-1.53,1.46.18,1.16-.26,1.37-1.26,1.59-.5.11-1,1-1.16,1.62a1,1,0,0,0,1.23,1.35c.93-.07,1.35.33,1.23,1.29s.47,1.42,1.41,1.33,1.49.4,1.48,1.45c0,2.38,0,4.77,0,7.15,0,.41-.22,1.1-.46,1.16-1.15.28-1.06,1.09-1.05,1.93s0,1.56,0,2.34c0,2,0,2-2.12,2.06-1.25,0-2.5.07-3.73,0-1.47-.1-2,.41-2,1.94.08,6.59.06,13.17,0,19.76,0,.72.51,2-.74,2s-.88-1.31-.88-2.07q0-6.47.11-12.91a2.71,2.71,0,0,0-2.12-3c-1.92-.6-3.85-1.19-5.72-1.94a4.51,4.51,0,0,0-3.72,0c-1.71.73-3.51,1.25-5.28,1.82-2.42.79-2.44.78-2.43,3.36,0,4.46,0,8.92,0,13.38a2.14,2.14,0,0,1-.49,1.34,1.11,1.11,0,0,1-1.1-.07,2.45,2.45,0,0,1-.37-1.4q0-10.19,0-20.37c0-1.1-.23-1.9-1.53-1.77-1.65.18-2-.62-1.95-2.11.07-5.65,0-11.3,0-17,0-1.14-.23-2-1.57-2-3.23.08-2.9-.45-3-3.28,0-.72,0-1.45,0-2.18l0-18.51c0-1.09,0-2.1-1.55-2.13-.34,0-.86-.71-1-1.17-1-3.89-2-7.81-3-11.71-1.65-6.51-3.32-13-4.91-19.54-.55-2.25-.94-4.54-1.32-6.82-.14-.83,0-1.56,1.21-1.48.94.06,1.17-.68,1-1.38-.12-.45-.63-1.13-1-1.14-1.14,0-1.23-.61-1.22-1.49,0-2.8,0-5.6,0-8.4,0-1.12-.19-1.95-1.57-2s-1.73.78-1.7,2c0,2.74,0,5.49,0,8.24,0,.86-.1,1.49-1.2,1.62-.38,0-.85.7-1,1.16-.18.68,0,1.38,1,1.33s1.23.56,1.18,1.4a11.89,11.89,0,0,1-.19,2.16q-2.43,9.85-4.93,19.7-2.07,8.25-4.19,16.49c-.08.32-.26.81-.48.87-1.57.4-1.54,1.59-1.54,2.82,0,7.37,0,14.73.07,22.09,0,1-.18,1.49-1.26,1.35s-1.47.48-1.39,1.5c0,.36,0,.72,0,1.09.15,93.13.08,110.26.37,203.39l143,4.22C298.28,330,298.38,392.85,298.32,379.68Z" class="cls-2"/><polygon points="81.12 177.97 81.39 345.91 226.95 429.64 226.69 261.71 81.12 177.97" class="cls-1"/><polygon points="371.99 177.52 372.25 345.45 226.95 429.64 226.69 261.71 371.99 177.52" class="cls-1"/></svg>