<?xml version="1.0" encoding="UTF-8"?>
<svg width="63px" height="57px" viewBox="0 0 63 57" version="1.1" xmlns="http://www.w3.org/2000/svg" xmlns:xlink="http://www.w3.org/1999/xlink">
    <!-- Generator: Sketch 54.1 (76490) - https://sketchapp.com -->
    <title>Combined Shape</title>
    <desc>Created with Sketch.</desc>
    <g id="Page-1" stroke="none" stroke-width="1" fill="none" fill-rule="evenodd">
        <g id="Revised" transform="translate(-15.000000, -18.000000)" fill="#FECB41">
            <path d="M62.2861372,53.3305191 C62.2861372,56.6092684 59.6281857,59.2672199 56.3494364,59.2672199 L35.2620541,59.2672199 C21.754018,58.1068888 15,51.6978298 15,40.0400428 C15,22.5533624 25.3771287,18 35.2620541,18 C45.114294,18 54.9665339,18 64.8187738,18 C67.9533879,18 70.4944946,20.5411068 70.4944946,23.6757208 C70.4944946,26.8103348 67.9533879,29.3514416 64.8187738,29.3514416 L35.2620541,29.3514416 C29.4315584,29.699415 26.5163105,32.7934711 26.5163105,38.63361 C26.5163105,44.4737488 29.4315584,47.3938182 35.2620541,47.3938182 L56.3494364,47.3938182 C59.6281857,47.3938182 62.2861372,50.0517697 62.2861372,53.3305191 Z M30.2083574,38.9367009 C30.2083574,35.6579515 32.8663089,33 36.1450582,33 L57.2324406,33 C70.7404766,34.1603311 77.4944946,40.5693902 77.4944946,52.2271771 C77.4944946,69.7138575 67.1173659,74.2672199 57.2324406,74.2672199 C47.3802006,74.2672199 37.5279607,74.2672199 27.6757208,74.2672199 C24.5411068,74.2672199 22,71.7261132 22,68.5914991 C22,65.4568851 24.5411068,62.9157783 27.6757208,62.9157783 L57.2324406,62.9157783 C63.0629363,62.5678049 65.9781841,59.4737488 65.9781841,53.63361 C65.9781841,47.7934711 63.0629363,44.8734017 57.2324406,44.8734017 L36.1450582,44.8734017 C32.8663089,44.8734017 30.2083574,42.2154502 30.2083574,38.9367009 Z" id="Combined-Shape"></path>
        </g>
    </g>
</svg>